<?xml version="1.0" encoding="utf-8"?>
<!-- Generator: Adobe Illustrator 26.5.0, SVG Export Plug-In . SVG Version: 6.00 Build 0)  -->
<svg version="1.1" id="Lager_1" xmlns="http://www.w3.org/2000/svg" xmlns:xlink="http://www.w3.org/1999/xlink" x="0px" y="0px"
	 viewBox="0 0 1000 400" style="enable-background:new 0 0 1000 400;" xml:space="preserve">
<style type="text/css">
	.st0{fill:#FFFFFF;}
</style>
<g>
	<rect x="70.2" y="20.3" width="859.7" height="359.4"/>
	<g>
		<g>
			<path class="st0" d="M211,166.8l29.6-2.7l34.2,118.7l17.4-123.4l15-1.4L289.6,282l-29.6,2.7l-34.2-118.7L213.9,289l-29.6,2.7
				l-39.9-118.8l15-1.4l39.6,118.1L211,166.8z"/>
			<path class="st0" d="M388,274.7c-8.3,0.8-16.1-0.2-23.4-2.8c-7.3-2.6-13.7-6.5-19.2-11.6c-5.5-5.1-10-11.4-13.4-18.7
				c-3.5-7.4-5.6-15.4-6.4-24.1c-0.8-8.7-0.2-17,1.9-24.9c2.1-7.9,5.3-14.8,9.8-20.9c4.5-6,10.1-11,16.7-14.9
				c6.7-3.9,14.2-6.3,22.5-7c8.3-0.8,16.1,0.2,23.4,2.8c7.3,2.6,13.7,6.5,19.2,11.6c5.5,5.1,10,11.4,13.4,18.7
				c3.5,7.4,5.6,15.4,6.4,24.1c0.8,8.7,0.2,17-1.9,24.9c-2.1,7.9-5.3,14.8-9.8,20.9c-4.5,6-10.1,11-16.7,14.9
				C403.9,271.6,396.4,274,388,274.7z M386.9,262.1c6-0.6,11.4-2.3,16.1-5.2c4.8-2.9,8.7-6.7,11.8-11.5c3.1-4.7,5.4-10.2,6.7-16.5
				c1.4-6.3,1.7-13.1,1.1-20.3c-0.7-7.3-2.3-13.9-4.8-19.8c-2.5-5.9-5.7-10.9-9.6-15c-3.9-4.1-8.5-7.1-13.7-9.1
				c-5.2-2-10.8-2.7-16.8-2.2c-6,0.6-11.4,2.3-16.1,5.2c-4.8,2.9-8.7,6.7-11.8,11.5s-5.4,10.2-6.7,16.5c-1.4,6.3-1.7,13.1-1.1,20.3
				c0.7,7.3,2.3,13.9,4.8,19.8c2.5,5.9,5.7,10.9,9.6,15c3.9,4.1,8.5,7.1,13.7,9.1C375.3,261.9,380.9,262.6,386.9,262.1z"/>
			<path class="st0" d="M512.8,139l29.6-2.7l34.2,118.7l17.4-123.4l15-1.4l-17.5,124.1l-29.6,2.7l-34.2-118.7l-11.9,122.9l-29.6,2.7
				l-39.9-118.8l15-1.4l39.6,118.1L512.8,139z"/>
			<path class="st0" d="M641.9,249.6l-11.2-121.5l69.9-6.4l1.2,12.7l-54.8,5l3.7,40.1l53.2-4.9l1.2,12.7l-53.2,4.9l4,43.3l56.2-5.2
				l1.2,12.7L641.9,249.6z"/>
			<path class="st0" d="M823.7,110.3l11.2,121.5l-31.2,2.9l-59.9-116.3L755,239.2l-15.1,1.4l-11.2-121.5l31.2-2.9l59.9,116.3
				l-11.1-120.8L823.7,110.3z"/>
		</g>
		<g>
			<path class="st0" d="M843.8,108.3c-4.7,0.4-8.1,4.5-7.7,9.1c0.4,4.7,4.5,8,9.1,7.5c4.7-0.4,8-4.5,7.5-9.1
				C852.5,111.3,848.4,107.9,843.8,108.3z M845.1,123.2c-3.6,0.3-6.8-2.4-7.1-6s2.2-6.9,5.9-7.2c3.6-0.3,6.8,2.4,7.1,6
				C851.4,119.6,848.7,122.9,845.1,123.2z"/>
			<path class="st0" d="M848.1,114.4c-0.2-1.9-1.4-2.5-3.2-2.3l-4,0.4l0.8,8.9l1.8-0.2l-0.3-3.4l1-0.1l2.4,3.2l2.2-0.2l-2.4-3.5
				C847.6,116.8,848.2,115.8,848.1,114.4z M844.7,115.9l-1.6,0.1l-0.2-2.2l1.6-0.1c1-0.1,1.6,0.1,1.7,0.9
				C846.2,115.5,845.8,115.8,844.7,115.9z"/>
		</g>
	</g>
</g>
</svg>
