<?xml version="1.0" encoding="utf-8"?>
<!-- Generator: Adobe Illustrator 26.5.0, SVG Export Plug-In . SVG Version: 6.00 Build 0)  -->
<svg version="1.1" id="Lager_1" xmlns="http://www.w3.org/2000/svg" xmlns:xlink="http://www.w3.org/1999/xlink" x="0px" y="0px"
	 viewBox="0 0 1000 400" style="enable-background:new 0 0 1000 400;" xml:space="preserve">
<style type="text/css">
	.st0{fill:#FFFFFF;}
</style>
<g>
	<g>
		<path class="st0" d="M124.5,156.6l38.6-3.6L207.7,308l22.7-161.1L250,145l-22.9,162.1l-38.6,3.6l-44.6-154.9l-15.6,160.5
			l-38.6,3.6L37.6,164.6l19.5-1.8l51.8,154.3L124.5,156.6z"/>
		<path class="st0" d="M355.6,297.6c-10.9,1-21.1-0.2-30.6-3.7c-9.5-3.4-17.9-8.5-25-15.2c-7.2-6.7-13-14.8-17.6-24.5
			c-4.5-9.6-7.3-20.1-8.3-31.5c-1-11.3-0.2-22.2,2.5-32.4c2.7-10.3,6.9-19.4,12.8-27.3c5.8-7.9,13.1-14.4,21.8-19.5
			c8.7-5.1,18.5-8.2,29.4-9.2c10.9-1,21.1,0.2,30.6,3.7c9.5,3.5,17.9,8.5,25,15.2c7.2,6.7,13,14.8,17.6,24.5
			c4.5,9.6,7.3,20.1,8.3,31.5c1,11.3,0.2,22.2-2.5,32.4c-2.7,10.3-6.9,19.4-12.8,27.3c-5.8,7.9-13.1,14.4-21.8,19.5
			C376.3,293.5,366.5,296.6,355.6,297.6z M354.1,281c7.8-0.7,14.8-3,21-6.8c6.2-3.8,11.4-8.8,15.4-15c4.1-6.2,7-13.4,8.8-21.6
			c1.8-8.2,2.3-17.1,1.4-26.6c-0.9-9.5-2.9-18.1-6.2-25.9c-3.3-7.7-7.5-14.3-12.6-19.6c-5.1-5.3-11.1-9.3-17.9-11.9
			c-6.8-2.6-14.1-3.6-21.9-2.8c-7.8,0.7-14.8,3-21,6.8c-6.2,3.8-11.4,8.8-15.4,15s-7,13.4-8.8,21.6c-1.8,8.2-2.3,17.1-1.4,26.6
			c0.9,9.5,2.9,18.1,6.2,25.9c3.3,7.7,7.5,14.3,12.6,19.6c5.1,5.3,11.1,9.3,17.9,11.9C338.9,280.8,346.3,281.8,354.1,281z"/>
		<path class="st0" d="M518.5,120.3l38.6-3.6l44.6,154.9l22.7-161.1l19.5-1.8l-22.9,162.1l-38.6,3.6l-44.6-154.9l-15.6,160.5
			l-38.6,3.6l-52.1-155.2l19.5-1.8l51.8,154.3L518.5,120.3z"/>
		<path class="st0" d="M687.1,264.7l-14.6-158.6l91.3-8.4l1.5,16.6l-71.5,6.6l4.8,52.4l69.4-6.4l1.5,16.6l-69.4,6.4l5.2,56.5
			l73.3-6.8l1.5,16.6L687.1,264.7z"/>
		<path class="st0" d="M924.4,82.9L939,241.5l-40.7,3.7L820.1,93.4l14.5,157.7l-19.8,1.8L800.3,94.3l40.7-3.7l78.2,151.8L904.6,84.7
			L924.4,82.9z"/>
	</g>
	<g>
		<path class="st0" d="M950.7,80.3c-6.1,0.6-10.5,5.9-10,11.9c0.6,6.1,5.9,10.4,11.8,9.8c6.1-0.6,10.4-5.9,9.8-11.8
			C962,84.2,956.6,79.7,950.7,80.3z M952.3,99.7c-4.8,0.4-8.8-3.1-9.3-7.8s2.9-9,7.7-9.4s8.8,3.1,9.3,7.8
			C960.6,95.1,957.1,99.3,952.3,99.7z"/>
		<path class="st0" d="M956.2,88.3c-0.2-2.5-1.8-3.3-4.2-3.1l-5.2,0.5l1.1,11.6l2.4-0.2l-0.4-4.5l1.3-0.1l3.1,4.2l2.8-0.3l-3.1-4.5
			C955.6,91.4,956.4,90.1,956.2,88.3z M951.9,90.2l-2.1,0.2l-0.3-2.8l2.1-0.2c1.3-0.1,2.1,0.1,2.2,1.1
			C953.8,89.7,953.2,90.1,951.9,90.2z"/>
	</g>
</g>
</svg>
